<?xml version="1.0" encoding="UTF-8" standalone="no" ?>
<!DOCTYPE svg PUBLIC "-//W3C//DTD SVG 1.1//EN" "http://www.w3.org/Graphics/SVG/1.1/DTD/svg11.dtd">
<svg xmlns="http://www.w3.org/2000/svg" xmlns:xlink="http://www.w3.org/1999/xlink" version="1.1" width="15" height="15" viewBox="0 0 15 15" xml:space="preserve">
<desc>Created with Fabric.js 5.3.0</desc>
<defs>
</defs>
<g transform="matrix(3.0847456578 0 0 3.0847456578 6.8612637363 6.5315934066)" id="DieqtuDA0rgXjdmCz9t-I"  >
<path style="stroke: rgb(71,188,80); stroke-width: 0; stroke-dasharray: none; stroke-linecap: butt; stroke-dashoffset: 0; stroke-linejoin: miter; stroke-miterlimit: 4; fill: rgb(2,68,10); fill-rule: nonzero; opacity: 1;" vector-effect="non-scaling-stroke"  transform=" translate(0, 0)" d="M -4.86264 -4.86264 L 4.86264 -4.86264 L 4.86264 4.86264 L -4.86264 4.86264 z" stroke-linecap="round" />
</g>
<g transform="matrix(4.3398305085 0 0 2.0570087691 6.8612637363 2.5864708927)" id="m35RqtLqBF9isZeYCAyQi"  >
<path style="stroke: rgb(205,104,209); stroke-width: 0; stroke-dasharray: none; stroke-linecap: butt; stroke-dashoffset: 0; stroke-linejoin: miter; stroke-miterlimit: 4; fill: rgb(91,58,0); fill-rule: nonzero; opacity: 1;" vector-effect="non-scaling-stroke"  transform=" translate(0, 0)" d="M 0 -1.72818 C 0.95395 -1.72818 1.72818 -0.95396 1.72818 0 C 1.72818 0.95395 0.86409 1.72818 0 1.72818 C -0.86409 1.72818 -1.72818 0.95396 -1.72818 0 C -1.72818 -0.95395 -0.95396 -1.72818 0 -1.72818 z" stroke-linecap="round" />
</g>
<g transform="matrix(4.3398305085 0 0 2.0570087691 7.4707005577 4.4723593587)" id="w7aUkosytmlyD_HC-tQLQ"  >
<path style="stroke: rgb(205,104,209); stroke-width: 0; stroke-dasharray: none; stroke-linecap: butt; stroke-dashoffset: 0; stroke-linejoin: miter; stroke-miterlimit: 4; fill: rgb(57,36,0); fill-rule: nonzero; opacity: 1;" vector-effect="non-scaling-stroke"  transform=" translate(0, 0)" d="M 0 -1.72818 C 0.95395 -1.72818 1.72818 -0.95396 1.72818 0 C 1.72818 0.95395 0.95396 1.72818 0 1.72818 C -0.95395 1.72818 -1.72818 0.95396 -1.72818 0 C -1.72818 -0.95395 -0.95396 -1.72818 0 -1.72818 z" stroke-linecap="round" />
</g>
<g transform="matrix(1 0 0 1 7.4175824176 6.7994505495)" id="zbL4fOpRx_vokS2gTD8oN"  >
<path style="stroke: rgb(0,0,0); stroke-width: 0; stroke-dasharray: none; stroke-linecap: butt; stroke-dashoffset: 0; stroke-linejoin: miter; stroke-miterlimit: 4; fill: rgb(2,68,10); fill-rule: nonzero; opacity: 10;" vector-effect="non-scaling-stroke"  transform=" translate(0, 0)" d="M 6.94368 -3.85284 L 8.26236 -3.9560400000000002 L 8.57143 -2.5304 L 7.43819 0.37087999999999965 L 6.20193 3.02885 C 6.20193 3.02885 2.0810500000000003 3.95605 1.91622 3.95605 C 1.7513800000000002 3.95605 -6.184259999999999 2.88462 -6.184259999999999 2.88462 L -8.57142 0.1236299999999999 L -8.42719 -2.8726700000000003 C -8.42719 -2.8726700000000003 -7.84376 -3.3464 -7.764379999999999 -3.25165 C -7.684999999999999 -3.1569000000000003 -7.59803 -3.04298 -7.446879999999999 -2.8726700000000003 C -7.295729999999999 -2.70236 -7.320379999999999 -2.7331200000000004 -7.125699999999999 -2.57039 C -6.931029999999999 -2.4076600000000004 -6.902169999999999 -2.37669 -6.6681799999999996 -2.22176 C -6.434189999999999 -2.0668300000000004 -6.18425 -1.9287 -6.18425 -1.9287 C -6.18425 -1.9287 -5.741949999999999 -1.69199 -5.0767 -1.4529100000000001 C -4.411449999999999 -1.2138400000000003 -4.34601 -1.1593200000000001 -3.5232599999999996 -0.9724000000000002 C -3.1280399999999995 -0.8826100000000001 -2.7617999999999996 -0.8213800000000002 -2.3571699999999995 -0.7623300000000002 C -1.1102099999999995 -0.5803300000000002 -0.13436999999999966 -0.6580800000000002 -0.13436999999999966 -0.6580800000000002 C -0.13436999999999966 -0.6580800000000002 0.3940900000000004 -0.6719900000000002 1.0990600000000004 -0.7623300000000002 C 1.5984400000000003 -0.8263200000000002 2.14982 -0.9314000000000002 2.7775800000000004 -1.0694800000000002 C 3.4053400000000003 -1.2075600000000002 3.3553500000000005 -1.2398300000000002 3.6101100000000006 -1.3146600000000002 C 4.172490000000001 -1.47985 5.0170900000000005 -1.9042400000000002 5.0170900000000005 -1.9042400000000002 C 5.0170900000000005 -1.9042400000000002 5.5687500000000005 -2.21653 5.966800000000001 -2.53038 C 6.364850000000001 -2.84423 6.592240000000001 -3.18522 6.592240000000001 -3.18522 C 6.592240000000001 -3.18522 6.731970000000001 -3.40335 6.806890000000001 -3.57025 C 6.881800000000001 -3.73715 6.891890000000001 -3.8528200000000004 6.891890000000001 -3.8528200000000004" stroke-linecap="round" />
</g>
</svg>